<svg version="1.1" viewBox="0.0 0.0 500.0 500.0" fill="none" stroke="none" stroke-linecap="square" stroke-miterlimit="10" xmlns:xlink="http://www.w3.org/1999/xlink" xmlns="http://www.w3.org/2000/svg"><clipPath id="p.0"><path d="m0 0l500.0 0l0 500.0l-500.0 0l0 -500.0z" clip-rule="nonzero"/></clipPath><g clip-path="url(#p.0)"><path fill="#000000" fill-opacity="0.0" d="m0 0l500.0 0l0 500.0l-500.0 0z" fill-rule="evenodd"/><path fill="#000000" fill-opacity="0.0" d="m13.448819 179.74803l473.10236 0l0 140.50395l-473.10236 0z" fill-rule="evenodd"/><path fill="#000000" d="m40.478664 283.8355q-0.109375 1.390625 -1.125 2.359375q-1.015625 0.953125 -2.296875 0.953125q-1.484375 0 -2.390625 -0.953125q-0.90625 -0.96875 -0.90625 -2.359375l0 -68.04686q0 -1.375 0.953125 -2.328125q0.96875 -0.96875 2.453125 -0.96875q1.28125 0 2.296875 0.96875q1.015625 0.953125 1.015625 2.328125l0 68.04686zm44.03908 -52.468735q7.046875 0 11.25 2.828125q4.21875 2.828125 6.078125 7.6875q1.875 4.84375 1.875 10.703125l0 31.35936q0 1.28125 -0.96875 2.25q-0.953125 0.953125 -2.234375 0.953125q-1.484375 0 -2.34375 -0.953125q-0.859375 -0.96875 -0.859375 -2.25l0 -31.031235q0 -4.265625 -1.390625 -7.78125q-1.375 -3.53125 -4.53125 -5.65625q-3.140625 -2.140625 -8.25 -2.140625q-4.59375 0 -8.703125 2.140625q-4.109375 2.125 -6.671875 5.65625q-2.546875 3.515625 -2.546875 7.78125l0 31.031235q0 1.28125 -0.96875 2.25q-0.9531288 0.953125 -2.2343788 0.953125q-1.5 0 -2.359375 -0.953125q-0.84375 -0.96875 -0.84375 -2.25l0 -47.781235q0 -1.28125 0.90625 -2.234375q0.90625 -0.96875 2.296875 -0.96875q1.390625 0 2.2968788 0.96875q0.90625 0.953125 0.90625 2.234375l0 8.96875l-2.4531288 3.828125q0.203125 -3.40625 2.1718788 -6.546875q1.984375 -3.15625 5.078125 -5.65625q3.09375 -2.515625 6.875 -3.953125q3.796875 -1.4375 7.625 -1.4375zm32.428604 1.5l24.84375 0q1.28125 0 2.140625 0.90625q0.859375 0.90625 0.859375 2.1875q0 1.171875 -0.859375 2.03125q-0.859375 0.84375 -2.140625 0.84375l-24.84375 0q-1.28125 0 -2.1875 -0.90625q-0.90625 -0.90625 -0.90625 -2.078125q0 -1.28125 0.90625 -2.125q0.90625 -0.859375 2.1875 -0.859375zm10.984375 -15.046875q1.390625 0 2.296875 0.96875q0.90625 0.953125 0.90625 2.234375l0 53.54686q0 2.984375 0.796875 4.484375q0.796875 1.484375 2.078125 1.96875q1.28125 0.46875 2.5625 0.46875q0.859375 0 1.546875 -0.265625q0.6875 -0.265625 1.546875 -0.265625q0.953125 0 1.640625 0.75q0.703125 0.75 0.703125 1.921875q0 1.484375 -1.703125 2.5q-1.703125 1.015625 -4.046875 1.015625q-0.96875 0 -2.890625 -0.15625q-1.921875 -0.15625 -3.953125 -1.171875q-2.015625 -1.015625 -3.359375 -3.578125q-1.328125 -2.5625 -1.328125 -7.359375l0 -53.85936q0 -1.28125 0.90625 -2.234375q0.90625 -0.96875 2.296875 -0.96875zm52.79503 70.39061q-8.21875 0 -14.515625 -3.515625q-6.28125 -3.515625 -9.8125 -9.8125q-3.515625 -6.296875 -3.515625 -14.71875q0 -9.062485 3.578125 -15.45311q3.578125 -6.40625 9.28125 -9.875q5.703125 -3.46875 12.109375 -3.46875q4.6875 0 9.109375 1.65625q4.4375 1.65625 7.890625 4.90625q3.46875 3.25 5.546875 7.953125q2.09375 4.6875 2.296875 10.874985q-0.109375 1.28125 -1.0625 2.1875q-0.953125 0.90625 -2.234375 0.90625l-42.78125 0l-1.28125 -5.7656097l42.03125 0l-1.390625 1.28125l0 -2.140625q-0.421875 -5.0 -3.203125 -8.515625q-2.765625 -3.53125 -6.71875 -5.34375q-3.9375 -1.8125 -8.203125 -1.8125q-3.203125 0 -6.5625 1.28125q-3.359375 1.28125 -6.078125 4.0q-2.71875 2.71875 -4.4375 6.9375q-1.703125 4.203125 -1.703125 9.968735q0 6.28125 2.5625 11.40625q2.5625 5.125 7.40625 8.109375q4.859375 2.984375 11.578125 2.984375q3.734375 0 6.71875 -1.0625q2.984375 -1.078125 5.21875 -2.828125q2.25 -1.765625 3.75 -3.6875q1.171875 -0.953125 2.34375 -0.953125q1.0625 0 1.859375 0.859375q0.796875 0.84375 0.796875 1.90625q0 1.28125 -1.0625 2.25q-3.203125 3.828125 -8.328125 6.65625q-5.109375 2.828125 -11.1875 2.828125zm42.66707 -4.265625q0 1.28125 -0.96875 2.25q-0.953125 0.953125 -2.234375 0.953125q-1.390625 0 -2.296875 -0.953125q-0.90625 -0.96875 -0.90625 -2.25l0 -72.51561q0 -1.28125 0.953125 -2.234375q0.96875 -0.96875 2.25 -0.96875q1.390625 0 2.296875 0.96875q0.90625 0.953125 0.90625 2.234375l0 72.51561zm24.530945 0q0 1.28125 -0.96875 2.25q-0.953125 0.953125 -2.234375 0.953125q-1.390625 0 -2.296875 -0.953125q-0.90625 -0.96875 -0.90625 -2.25l0 -72.51561q0 -1.28125 0.953125 -2.234375q0.96875 -0.96875 2.25 -0.96875q1.390625 0 2.296875 0.96875q0.90625 0.953125 0.90625 2.234375l0 72.51561zm23.67157 0q0 1.28125 -0.96875 2.25q-0.953125 0.953125 -2.234375 0.953125q-1.375 0 -2.28125 -0.953125q-0.90625 -0.96875 -0.90625 -2.25l0 -49.062485q0 -1.28125 0.90625 -2.234375q0.90625 -0.96875 2.28125 -0.96875q1.390625 0 2.296875 0.96875q0.90625 0.953125 0.90625 2.234375l0 49.062485zm-3.203125 -59.406235q-2.234375 0 -3.359375 -1.0q-1.125 -1.015625 -1.125 -2.9375l0 -1.078125q0 -1.90625 1.21875 -2.921875q1.234375 -1.015625 3.375 -1.015625q2.03125 0 3.140625 1.015625q1.125 1.015625 1.125 2.921875l0 1.078125q0 1.921875 -1.125 2.9375q-1.109375 1.0 -3.25 1.0zm43.840057 6.828125q5.125 0 9.390625 1.125q4.265625 1.109375 6.875 3.03125q2.609375 1.921875 2.609375 4.15625q0 1.078125 -0.75 2.09375q-0.734375 1.0 -2.015625 1.0q-1.28125 0 -2.078125 -0.640625q-0.796875 -0.640625 -1.609375 -1.484375q-0.796875 -0.859375 -2.28125 -1.609375q-1.390625 -0.625 -3.953125 -1.15625q-2.5625 -0.546875 -5.859375 -0.546875q-5.984375 0 -10.78125 3.0q-4.796875 2.984375 -7.578125 8.046875q-2.765625 5.0625 -2.765625 11.35936q0 6.390625 2.65625 11.515625q2.671875 5.125 7.359375 8.0625q4.703125 2.921875 11.0 2.921875q4.265625 0 6.609375 -0.75q2.34375 -0.75 4.046875 -1.703125q2.03125 -1.171875 2.9375 -2.28125q0.90625 -1.125 2.40625 -1.125q1.375 0 2.0625 0.796875q0.703125 0.796875 0.703125 2.078125q0 1.703125 -2.515625 3.78125q-2.5 2.078125 -6.875 3.625q-4.359375 1.546875 -10.015625 1.546875q-8.0 0 -14.03125 -3.734375q-6.015625 -3.734375 -9.390625 -10.1875q-3.359375 -6.453125 -3.359375 -14.546875q0 -7.7968597 3.40625 -14.187485q3.421875 -6.40625 9.546875 -10.296875q6.140625 -3.890625 14.25 -3.890625zm55.88861 56.843735q-8.21875 0 -14.515625 -3.515625q-6.28125 -3.515625 -9.8125 -9.8125q-3.515625 -6.296875 -3.515625 -14.71875q0 -9.062485 3.578125 -15.45311q3.578125 -6.40625 9.28125 -9.875q5.703125 -3.46875 12.109375 -3.46875q4.6875 0 9.109375 1.65625q4.4375 1.65625 7.890625 4.90625q3.46875 3.25 5.546875 7.953125q2.09375 4.6875 2.296875 10.874985q-0.109375 1.28125 -1.0625 2.1875q-0.953125 0.90625 -2.234375 0.90625l-42.78125 0l-1.28125 -5.7656097l42.03125 0l-1.390625 1.28125l0 -2.140625q-0.421875 -5.0 -3.203125 -8.515625q-2.765625 -3.53125 -6.71875 -5.34375q-3.9375 -1.8125 -8.203125 -1.8125q-3.203125 0 -6.5625 1.28125q-3.359375 1.28125 -6.078125 4.0q-2.71875 2.71875 -4.4375 6.9375q-1.703125 4.203125 -1.703125 9.968735q0 6.28125 2.5625 11.40625q2.5625 5.125 7.40625 8.109375q4.859375 2.984375 11.578125 2.984375q3.734375 0 6.71875 -1.0625q2.984375 -1.078125 5.21875 -2.828125q2.25 -1.765625 3.75 -3.6875q1.171875 -0.953125 2.34375 -0.953125q1.0625 0 1.859375 0.859375q0.796875 0.84375 0.796875 1.90625q0 1.28125 -1.0625 2.25q-3.203125 3.828125 -8.328125 6.65625q-5.109375 2.828125 -11.1875 2.828125zm61.323303 -56.843735q7.046875 0 11.25 2.828125q4.21875 2.828125 6.078125 7.6875q1.875 4.84375 1.875 10.703125l0 31.35936q0 1.28125 -0.96875 2.25q-0.953125 0.953125 -2.234375 0.953125q-1.484375 0 -2.34375 -0.953125q-0.859375 -0.96875 -0.859375 -2.25l0 -31.031235q0 -4.265625 -1.390625 -7.78125q-1.375 -3.53125 -4.53125 -5.65625q-3.140625 -2.140625 -8.25 -2.140625q-4.59375 0 -8.703125 2.140625q-4.109375 2.125 -6.671875 5.65625q-2.546875 3.515625 -2.546875 7.78125l0 31.031235q0 1.28125 -0.96875 2.25q-0.953125 0.953125 -2.234375 0.953125q-1.5 0 -2.359375 -0.953125q-0.84375 -0.96875 -0.84375 -2.25l0 -47.781235q0 -1.28125 0.90625 -2.234375q0.90625 -0.96875 2.296875 -0.96875q1.390625 0 2.296875 0.96875q0.90625 0.953125 0.90625 2.234375l0 8.96875l-2.453125 3.828125q0.203125 -3.40625 2.171875 -6.546875q1.984375 -3.15625 5.078125 -5.65625q3.09375 -2.515625 6.875 -3.953125q3.796875 -1.4375 7.625 -1.4375zm36.80359 55.781235q-1.8125 0 -2.78125 -1.171875q-0.953125 -1.171875 -0.953125 -2.984375l0 -2.25q0 -1.90625 0.953125 -2.96875q0.96875 -1.078125 2.78125 -1.078125l0.75 0q1.8125 0 2.765625 1.078125q0.96875 1.0625 0.96875 2.96875l0 2.25q0 1.8125 -0.96875 2.984375q-0.953125 1.171875 -2.765625 1.171875l-0.75 0z" fill-rule="nonzero"/></g></svg>